<?xml version="1.0" standalone="no"?>
<!DOCTYPE svg PUBLIC "-//W3C//DTD SVG 20010904//EN"
 "http://www.w3.org/TR/2001/REC-SVG-20010904/DTD/svg10.dtd">
<svg version="1.0" xmlns="http://www.w3.org/2000/svg"
 width="700.000000pt" height="700.000000pt" viewBox="0 0 700.000000 700.000000"
 preserveAspectRatio="xMidYMid meet">
<metadata>
Created by potrace 1.14, written by Peter Selinger 2001-2017
</metadata>
<g transform="translate(0.000000,700.000000) scale(0.100000,-0.100000)"
fill="#000000" stroke="none">
<path d="M3579 6996 c-2 -2 -22 -6 -44 -9 -330 -41 -754 -291 -1073 -632 -39
-42 -156 -199 -259 -348 -337 -487 -374 -541 -411 -597 -21 -30 -39 -57 -43
-60 -3 -3 -39 -54 -80 -115 -41 -60 -76 -112 -79 -115 -3 -3 -32 -43 -63 -90
-32 -47 -94 -137 -138 -200 -44 -63 -107 -155 -141 -205 -34 -49 -68 -100 -77
-111 -9 -12 -22 -30 -29 -40 -7 -11 -62 -91 -123 -179 -61 -88 -145 -209 -187
-270 -42 -60 -216 -312 -387 -560 -172 -247 -319 -462 -328 -476 l-17 -25 268
-3 c147 -2 389 -4 537 -6 149 -2 308 -4 355 -4 l85 -1 54 -128 c30 -70 67
-154 82 -187 14 -33 56 -127 92 -210 35 -82 110 -255 166 -383 56 -128 108
-247 116 -265 7 -18 23 -54 35 -82 13 -27 52 -117 87 -200 36 -82 73 -168 83
-190 55 -125 102 -232 182 -420 71 -167 107 -236 174 -337 184 -277 430 -466
677 -522 118 -27 324 -28 437 -2 238 54 467 166 694 338 108 82 141 112 271
243 110 110 117 119 423 565 36 52 84 121 106 152 23 31 91 129 151 218 61 88
144 209 185 268 42 59 116 166 165 237 49 72 109 159 134 195 25 36 139 200
252 365 114 165 217 314 229 330 26 37 383 553 460 665 30 45 61 88 68 98 17
23 232 336 232 338 0 1 -46 2 -102 2 -57 0 -332 2 -612 6 -508 6 -536 8 -536
40 0 7 -22 62 -49 122 -26 60 -79 179 -116 264 -37 85 -91 209 -120 275 -29
66 -83 190 -120 275 -37 85 -75 173 -85 195 -10 22 -72 164 -138 315 -66 151
-159 365 -208 475 -48 110 -97 223 -108 250 -12 28 -29 61 -39 75 -10 14 -43
63 -74 110 -183 280 -412 461 -668 530 -73 19 -332 39 -346 26z m-304 -2483
c27 -60 61 -135 76 -168 15 -33 54 -122 88 -197 149 -336 185 -416 208 -468
14 -30 41 -91 60 -135 19 -44 49 -111 67 -150 18 -38 70 -157 117 -262 l84
-193 38 0 c20 0 37 -2 37 -5 0 -11 -265 -535 -270 -535 -4 0 -21 35 -40 78
-18 42 -47 106 -63 142 -16 36 -92 207 -169 380 -77 173 -159 358 -183 410
-23 52 -52 118 -64 145 -12 28 -68 154 -125 280 l-102 230 -41 5 -40 5 98 195
c54 107 102 202 105 210 8 19 69 140 70 140 1 0 23 -48 49 -107z"/>
</g>
</svg>
